<svg width="23" height="20" viewBox="0 0 23 20" fill="none" xmlns="http://www.w3.org/2000/svg">
<g clip-path="url(#clip0_3_19)">
<path d="M9.21669 1.66666H16.9167C19.85 1.66666 22.2334 3.83332 22.2334 6.49999V13.5C22.2334 14.7819 21.6732 16.0112 20.6761 16.9177C19.6791 17.8241 18.3268 18.3333 16.9167 18.3333H9.21669C6.28336 18.3333 3.90002 16.1667 3.90002 13.5V6.49999C3.90002 5.21811 4.46017 3.98873 5.45724 3.08231C6.45431 2.17588 7.80662 1.66666 9.21669 1.66666ZM9.03336 3.33332C8.15814 3.33332 7.31878 3.64939 6.69991 4.212C6.08104 4.77461 5.73336 5.53767 5.73336 6.33332V13.6667C5.73336 15.325 7.20919 16.6667 9.03336 16.6667H17.1C17.9752 16.6667 18.8146 16.3506 19.4335 15.788C20.0523 15.2254 20.4 14.4623 20.4 13.6667V6.33332C20.4 4.67499 18.9242 3.33332 17.1 3.33332H9.03336ZM17.8792 4.58332C18.1831 4.58332 18.4745 4.69307 18.6894 4.88842C18.9043 5.08377 19.025 5.34872 19.025 5.62499C19.025 5.90126 18.9043 6.16621 18.6894 6.36156C18.4745 6.55691 18.1831 6.66666 17.8792 6.66666C17.5753 6.66666 17.2838 6.55691 17.069 6.36156C16.8541 6.16621 16.7334 5.90126 16.7334 5.62499C16.7334 5.34872 16.8541 5.08377 17.069 4.88842C17.2838 4.69307 17.5753 4.58332 17.8792 4.58332ZM13.0667 5.83332C14.2823 5.83332 15.4481 6.27231 16.3076 7.05371C17.1671 7.83511 17.65 8.89492 17.65 9.99999C17.65 11.1051 17.1671 12.1649 16.3076 12.9463C15.4481 13.7277 14.2823 14.1667 13.0667 14.1667C11.8511 14.1667 10.6853 13.7277 9.82578 12.9463C8.96624 12.1649 8.48336 11.1051 8.48336 9.99999C8.48336 8.89492 8.96624 7.83511 9.82578 7.05371C10.6853 6.27231 11.8511 5.83332 13.0667 5.83332ZM13.0667 7.49999C12.3373 7.49999 11.6379 7.76338 11.1221 8.23222C10.6064 8.70106 10.3167 9.33695 10.3167 9.99999C10.3167 10.663 10.6064 11.2989 11.1221 11.7678C11.6379 12.2366 12.3373 12.5 13.0667 12.5C13.796 12.5 14.4955 12.2366 15.0112 11.7678C15.527 11.2989 15.8167 10.663 15.8167 9.99999C15.8167 9.33695 15.527 8.70106 15.0112 8.23222C14.4955 7.76338 13.796 7.49999 13.0667 7.49999Z" fill="white"/>
</g>
<defs>
<clipPath id="clip0_3_19">
<rect width="22" height="20" fill="white" transform="translate(0.599976)"/>
</clipPath>
</defs>
</svg>
